<mxfile host="65bd71144e">
    <diagram id="pQrNGGkurGM5wtRSkuQ_" name="Crawl">
        <mxGraphModel dx="1826" dy="876" grid="1" gridSize="10" guides="1" tooltips="1" connect="1" arrows="1" fold="1" page="1" pageScale="1" pageWidth="850" pageHeight="1100" math="0" shadow="0">
            <root>
                <mxCell id="0"/>
                <mxCell id="1" parent="0"/>
                <mxCell id="5" value="" style="rounded=0;whiteSpace=wrap;html=1;fillColor=#f5f5f5;fontColor=#333333;strokeColor=#666666;" vertex="1" parent="1">
                    <mxGeometry x="10" y="50" width="820" height="700" as="geometry"/>
                </mxCell>
                <mxCell id="24" style="edgeStyle=none;html=1;entryX=0.5;entryY=0;entryDx=0;entryDy=0;strokeColor=#000000;strokeWidth=1;fontSize=20;fontColor=#000000;" edge="1" parent="1" source="2" target="6">
                    <mxGeometry relative="1" as="geometry"/>
                </mxCell>
                <mxCell id="2" value="Lấy đường link page cần crawl dữ liệu" style="rounded=0;whiteSpace=wrap;html=1;fontSize=20;fillColor=#dae8fc;strokeColor=#6c8ebf;fontColor=#000000;" vertex="1" parent="1">
                    <mxGeometry x="15" y="170" width="255" height="80" as="geometry"/>
                </mxCell>
                <mxCell id="4" style="edgeStyle=none;html=1;" edge="1" parent="1" source="3" target="2">
                    <mxGeometry relative="1" as="geometry"/>
                </mxCell>
                <mxCell id="23" style="edgeStyle=none;html=1;fontSize=20;fontColor=#000000;strokeColor=#000000;strokeWidth=1;" edge="1" parent="1" source="3" target="2">
                    <mxGeometry relative="1" as="geometry"/>
                </mxCell>
                <mxCell id="3" value="Bắt đầu" style="ellipse;whiteSpace=wrap;html=1;fontSize=20;fillColor=#dae8fc;strokeColor=#6c8ebf;fontColor=#000000;" vertex="1" parent="1">
                    <mxGeometry x="91.07" y="60" width="102.86" height="90" as="geometry"/>
                </mxCell>
                <mxCell id="25" style="edgeStyle=none;html=1;entryX=0.5;entryY=0;entryDx=0;entryDy=0;strokeColor=#000000;strokeWidth=1;fontSize=20;fontColor=#000000;" edge="1" parent="1" source="6" target="7">
                    <mxGeometry relative="1" as="geometry"/>
                </mxCell>
                <mxCell id="6" value="Đọc nội dung html của page đó" style="rounded=0;whiteSpace=wrap;html=1;fontSize=20;fillColor=#dae8fc;strokeColor=#6c8ebf;fontColor=#000000;" vertex="1" parent="1">
                    <mxGeometry x="15" y="280" width="255" height="80" as="geometry"/>
                </mxCell>
                <mxCell id="26" style="edgeStyle=none;html=1;entryX=0;entryY=0.5;entryDx=0;entryDy=0;strokeColor=#000000;strokeWidth=1;fontSize=20;fontColor=#000000;" edge="1" parent="1" source="7" target="12">
                    <mxGeometry relative="1" as="geometry"/>
                </mxCell>
                <mxCell id="7" value="" style="rounded=0;whiteSpace=wrap;html=1;fontSize=20;fillColor=#dae8fc;strokeColor=#6c8ebf;fontColor=#000000;" vertex="1" parent="1">
                    <mxGeometry x="15" y="390" width="255" height="150" as="geometry"/>
                </mxCell>
                <mxCell id="8" value="Loại bỏ các thẻ html" style="rounded=0;whiteSpace=wrap;html=1;fontSize=20;fillColor=#ffe6cc;strokeColor=#d79b00;fontColor=#000000;" vertex="1" parent="1">
                    <mxGeometry x="25" y="410" width="225" height="50" as="geometry"/>
                </mxCell>
                <mxCell id="9" value="Loại bỏ các ký tự đặt biệt" style="rounded=0;whiteSpace=wrap;html=1;fontSize=20;fillColor=#ffe6cc;strokeColor=#d79b00;fontColor=#000000;" vertex="1" parent="1">
                    <mxGeometry x="25" y="470" width="225" height="50" as="geometry"/>
                </mxCell>
                <mxCell id="27" style="edgeStyle=none;html=1;strokeColor=#000000;strokeWidth=1;fontSize=20;fontColor=#000000;" edge="1" parent="1" source="12" target="15">
                    <mxGeometry relative="1" as="geometry"/>
                </mxCell>
                <mxCell id="29" style="edgeStyle=none;html=1;strokeColor=#000000;strokeWidth=1;fontSize=20;fontColor=#000000;" edge="1" parent="1" source="12" target="20">
                    <mxGeometry relative="1" as="geometry"/>
                </mxCell>
                <mxCell id="12" value="Nếu có chứa &lt;br&gt;url page khác" style="rhombus;whiteSpace=wrap;html=1;fontSize=20;fillColor=#dae8fc;strokeColor=#6c8ebf;fontColor=#000000;rounded=0;" vertex="1" parent="1">
                    <mxGeometry x="425" y="405" width="290" height="120" as="geometry"/>
                </mxCell>
                <mxCell id="28" style="edgeStyle=none;html=1;strokeColor=#000000;strokeWidth=1;fontSize=20;fontColor=#000000;" edge="1" parent="1" source="15" target="6">
                    <mxGeometry relative="1" as="geometry"/>
                </mxCell>
                <mxCell id="15" value="Đưa vào hàng đợi" style="whiteSpace=wrap;html=1;fontSize=20;fillColor=#dae8fc;strokeColor=#6c8ebf;fontColor=#000000;rounded=0;" vertex="1" parent="1">
                    <mxGeometry x="470" y="285" width="200" height="75" as="geometry"/>
                </mxCell>
                <mxCell id="30" style="edgeStyle=none;html=1;strokeColor=#000000;strokeWidth=1;fontSize=20;fontColor=#000000;" edge="1" parent="1" source="20" target="22">
                    <mxGeometry relative="1" as="geometry"/>
                </mxCell>
                <mxCell id="20" value="Lưu lại nội dụng ở vào file ở Local" style="whiteSpace=wrap;html=1;fontSize=20;fillColor=#dae8fc;strokeColor=#6c8ebf;fontColor=#000000;rounded=0;" vertex="1" parent="1">
                    <mxGeometry x="447.5" y="550" width="245" height="60" as="geometry"/>
                </mxCell>
                <mxCell id="22" value="Kết thúc" style="ellipse;whiteSpace=wrap;html=1;fontSize=20;fillColor=#dae8fc;strokeColor=#6c8ebf;fontColor=#000000;" vertex="1" parent="1">
                    <mxGeometry x="520" y="640" width="102.86" height="90" as="geometry"/>
                </mxCell>
                <mxCell id="31" value="url chưa crawl" style="text;html=1;strokeColor=none;fillColor=none;align=center;verticalAlign=middle;whiteSpace=wrap;rounded=0;fontSize=20;fontColor=#000000;" vertex="1" parent="1">
                    <mxGeometry x="297.5" y="285" width="150" height="30" as="geometry"/>
                </mxCell>
                <mxCell id="32" value="nội dung" style="text;html=1;strokeColor=none;fillColor=none;align=center;verticalAlign=middle;whiteSpace=wrap;rounded=0;fontSize=20;fontColor=#000000;" vertex="1" parent="1">
                    <mxGeometry x="270" y="440" width="150" height="30" as="geometry"/>
                </mxCell>
                <mxCell id="33" value="Đúng" style="text;html=1;strokeColor=none;fillColor=none;align=center;verticalAlign=middle;whiteSpace=wrap;rounded=0;fontSize=20;fontColor=#000000;" vertex="1" parent="1">
                    <mxGeometry x="542.5" y="375" width="150" height="30" as="geometry"/>
                </mxCell>
                <mxCell id="34" value="Sai" style="text;html=1;strokeColor=none;fillColor=none;align=center;verticalAlign=middle;whiteSpace=wrap;rounded=0;fontSize=20;fontColor=#000000;" vertex="1" parent="1">
                    <mxGeometry x="550" y="520" width="150" height="30" as="geometry"/>
                </mxCell>
            </root>
        </mxGraphModel>
    </diagram>
    <diagram id="PefH5ICuH6JCyGJuSy28" name="Page-2">
        <mxGraphModel dx="1377" dy="1022" grid="1" gridSize="10" guides="1" tooltips="1" connect="1" arrows="1" fold="1" page="1" pageScale="1" pageWidth="850" pageHeight="1100" math="0" shadow="0">
            <root>
                <mxCell id="0"/>
                <mxCell id="1" parent="0"/>
                <mxCell id="OLZUDLw26tUO9IRH3DYy-1" value="" style="rounded=0;whiteSpace=wrap;html=1;fontSize=20;fontColor=#333333;fillColor=#f5f5f5;strokeColor=#666666;" vertex="1" parent="1">
                    <mxGeometry x="40" y="60" width="740" height="720" as="geometry"/>
                </mxCell>
                <mxCell id="OLZUDLw26tUO9IRH3DYy-19" style="edgeStyle=none;html=1;strokeColor=#000000;strokeWidth=1;fontSize=20;fontColor=#000000;" edge="1" parent="1" source="OLZUDLw26tUO9IRH3DYy-2" target="OLZUDLw26tUO9IRH3DYy-3">
                    <mxGeometry relative="1" as="geometry"/>
                </mxCell>
                <mxCell id="OLZUDLw26tUO9IRH3DYy-2" value="File Local" style="rounded=0;whiteSpace=wrap;html=1;fontSize=20;fillColor=#d5e8d4;strokeColor=#82b366;fontColor=#000000;" vertex="1" parent="1">
                    <mxGeometry x="80" y="160" width="270" height="80" as="geometry"/>
                </mxCell>
                <mxCell id="OLZUDLw26tUO9IRH3DYy-20" style="edgeStyle=none;html=1;entryX=0;entryY=0.5;entryDx=0;entryDy=0;strokeColor=#000000;strokeWidth=1;fontSize=20;fontColor=#000000;" edge="1" parent="1" source="OLZUDLw26tUO9IRH3DYy-3" target="OLZUDLw26tUO9IRH3DYy-5">
                    <mxGeometry relative="1" as="geometry"/>
                </mxCell>
                <mxCell id="OLZUDLw26tUO9IRH3DYy-3" value="Đọc và tách từng câu" style="rounded=0;whiteSpace=wrap;html=1;fontSize=20;fillColor=#d5e8d4;strokeColor=#82b366;fontColor=#000000;" vertex="1" parent="1">
                    <mxGeometry x="80" y="260" width="270" height="70" as="geometry"/>
                </mxCell>
                <mxCell id="OLZUDLw26tUO9IRH3DYy-21" style="edgeStyle=none;html=1;strokeColor=#000000;strokeWidth=1;fontSize=20;fontColor=#000000;" edge="1" parent="1" source="OLZUDLw26tUO9IRH3DYy-5" target="OLZUDLw26tUO9IRH3DYy-11">
                    <mxGeometry relative="1" as="geometry"/>
                </mxCell>
                <mxCell id="OLZUDLw26tUO9IRH3DYy-5" value="Rasa Server&lt;br&gt;&lt;i style=&quot;font-size: 16px;&quot;&gt;(&lt;font style=&quot;font-size: 16px;&quot;&gt;Model DIET&lt;/font&gt;)&lt;/i&gt;" style="rounded=0;whiteSpace=wrap;html=1;fontSize=20;fillColor=#d5e8d4;strokeColor=#82b366;fontColor=#000000;" vertex="1" parent="1">
                    <mxGeometry x="395" y="260" width="270" height="70" as="geometry"/>
                </mxCell>
                <mxCell id="OLZUDLw26tUO9IRH3DYy-18" style="edgeStyle=none;html=1;strokeColor=#000000;strokeWidth=1;fontSize=20;fontColor=#000000;" edge="1" parent="1" source="OLZUDLw26tUO9IRH3DYy-6" target="OLZUDLw26tUO9IRH3DYy-2">
                    <mxGeometry relative="1" as="geometry"/>
                </mxCell>
                <mxCell id="OLZUDLw26tUO9IRH3DYy-6" value="Start" style="ellipse;whiteSpace=wrap;html=1;fontSize=20;fillColor=#d5e8d4;strokeColor=#82b366;fontColor=#000000;rounded=0;" vertex="1" parent="1">
                    <mxGeometry x="175" y="60" width="80" height="80" as="geometry"/>
                </mxCell>
                <mxCell id="OLZUDLw26tUO9IRH3DYy-22" style="edgeStyle=none;html=1;strokeColor=#000000;strokeWidth=1;fontSize=20;fontColor=#000000;" edge="1" parent="1" source="OLZUDLw26tUO9IRH3DYy-11" target="OLZUDLw26tUO9IRH3DYy-14">
                    <mxGeometry relative="1" as="geometry"/>
                </mxCell>
                <mxCell id="OLZUDLw26tUO9IRH3DYy-25" style="edgeStyle=orthogonalEdgeStyle;html=1;strokeColor=#000000;strokeWidth=1;fontSize=20;fontColor=#000000;exitX=0;exitY=0.5;exitDx=0;exitDy=0;" edge="1" parent="1" source="OLZUDLw26tUO9IRH3DYy-11" target="OLZUDLw26tUO9IRH3DYy-17">
                    <mxGeometry relative="1" as="geometry">
                        <Array as="points">
                            <mxPoint x="340" y="440"/>
                            <mxPoint x="340" y="740"/>
                        </Array>
                    </mxGeometry>
                </mxCell>
                <mxCell id="OLZUDLw26tUO9IRH3DYy-11" value="xác xuất &amp;gt; 60%" style="rhombus;whiteSpace=wrap;html=1;fontSize=20;fillColor=#d5e8d4;strokeColor=#82b366;fontColor=#000000;rounded=0;" vertex="1" parent="1">
                    <mxGeometry x="425" y="380" width="210" height="120" as="geometry"/>
                </mxCell>
                <mxCell id="OLZUDLw26tUO9IRH3DYy-23" style="edgeStyle=none;html=1;strokeColor=#000000;strokeWidth=1;fontSize=20;fontColor=#000000;" edge="1" parent="1" source="OLZUDLw26tUO9IRH3DYy-14" target="OLZUDLw26tUO9IRH3DYy-16">
                    <mxGeometry relative="1" as="geometry"/>
                </mxCell>
                <mxCell id="OLZUDLw26tUO9IRH3DYy-14" value="Lấy thực thể và các giá trị đã trích xuất" style="whiteSpace=wrap;html=1;fontSize=20;fillColor=#d5e8d4;strokeColor=#82b366;fontColor=#000000;rounded=0;" vertex="1" parent="1">
                    <mxGeometry x="415" y="530" width="220" height="60" as="geometry"/>
                </mxCell>
                <mxCell id="OLZUDLw26tUO9IRH3DYy-24" style="edgeStyle=none;html=1;strokeColor=#000000;strokeWidth=1;fontSize=20;fontColor=#000000;" edge="1" parent="1" source="OLZUDLw26tUO9IRH3DYy-16" target="OLZUDLw26tUO9IRH3DYy-17">
                    <mxGeometry relative="1" as="geometry"/>
                </mxCell>
                <mxCell id="OLZUDLw26tUO9IRH3DYy-16" value="Lưu và DB" style="whiteSpace=wrap;html=1;fontSize=20;fillColor=#d5e8d4;strokeColor=#82b366;fontColor=#000000;rounded=0;" vertex="1" parent="1">
                    <mxGeometry x="420" y="610" width="220" height="60" as="geometry"/>
                </mxCell>
                <mxCell id="OLZUDLw26tUO9IRH3DYy-17" value="End" style="ellipse;whiteSpace=wrap;html=1;fontSize=20;fillColor=#d5e8d4;strokeColor=#82b366;fontColor=#000000;rounded=0;" vertex="1" parent="1">
                    <mxGeometry x="490" y="700" width="80" height="80" as="geometry"/>
                </mxCell>
                <mxCell id="OLZUDLw26tUO9IRH3DYy-26" value="Đúng" style="text;html=1;strokeColor=none;fillColor=none;align=center;verticalAlign=middle;whiteSpace=wrap;rounded=0;fontSize=20;fontColor=#000000;" vertex="1" parent="1">
                    <mxGeometry x="540" y="490" width="60" height="30" as="geometry"/>
                </mxCell>
                <mxCell id="OLZUDLw26tUO9IRH3DYy-27" value="Sai" style="text;html=1;strokeColor=none;fillColor=none;align=center;verticalAlign=middle;whiteSpace=wrap;rounded=0;fontSize=20;fontColor=#000000;" vertex="1" parent="1">
                    <mxGeometry x="350" y="400" width="60" height="30" as="geometry"/>
                </mxCell>
                <mxCell id="OLZUDLw26tUO9IRH3DYy-28" value="ý định" style="text;html=1;strokeColor=none;fillColor=none;align=center;verticalAlign=middle;whiteSpace=wrap;rounded=0;fontSize=16;fontColor=#000000;" vertex="1" parent="1">
                    <mxGeometry x="530" y="340" width="60" height="30" as="geometry"/>
                </mxCell>
            </root>
        </mxGraphModel>
    </diagram>
</mxfile>